<svg xmlns="http://www.w3.org/2000/svg" version="1.1" xmlns:xlink="http://www.w3.org/1999/xlink" xmlns:svgjs="http://svgjs.dev/svgjs" width="1000" height="103" viewBox="0 0 1000 103"><g transform="matrix(1,0,0,1,-0.6060604960831029,0.2603750317343909)"><svg viewBox="0 0 396 41" data-background-color="#ffffff" preserveAspectRatio="xMidYMid meet" height="103" width="1000" xmlns="http://www.w3.org/2000/svg" xmlns:xlink="http://www.w3.org/1999/xlink"><g id="tight-bounds" transform="matrix(1,0,0,1,0.2400000435511629,-0.10364443010786317)"><svg viewBox="0 0 395.52 41.2072888602157" height="41.2072888602157" width="395.52"><g><svg viewBox="0 0 458.87679337785664 47.80812241092955" height="41.2072888602157" width="395.52"><g transform="matrix(1,0,0,1,0,6.6073454272702925)"><svg viewBox="0 0 395.52 34.593431556388964" height="34.593431556388964" width="395.52"><g id="textblocktransform"><svg viewBox="0 0 395.52 34.593431556388964" height="34.593431556388964" width="395.52" id="textblock"><g><svg viewBox="0 0 395.52 34.593431556388964" height="34.593431556388964" width="395.52"><g transform="matrix(1,0,0,1,0,0)"><svg width="395.52" viewBox="1.9000000953674316 -32.29999923706055 373.260009765625 32.64999771118164" height="34.593431556388964" data-palette-color="#ffffff"><path d="M17.5-32.3Q22.55-32.3 26.9-30.05L26.9-30.05 26.1-26.25 25.6-26.15Q23.2-27.65 21.18-28.3 19.15-28.95 16.9-28.95L16.9-28.95Q6.05-28.95 6.05-15.55L6.05-15.55Q6.05-9.1 8.58-6.08 11.1-3.05 16.4-3.05L16.4-3.05Q17.8-3.05 19.23-3.3 20.65-3.55 22.9-4.25L22.9-4.25 23-8 22.95-12.8 26.7-13.1 26.6-8.55 26.8-1.55Q23.55-0.55 21.05-0.1 18.55 0.35 16.2 0.35L16.2 0.35Q9.05 0.35 5.48-3.7 1.9-7.75 1.9-15.4L1.9-15.4Q1.9-23.65 5.95-27.98 10-32.3 17.5-32.3L17.5-32.3ZM44.3-25.2Q49.75-25.2 52.67-22 55.6-18.8 55.6-12.95L55.6-12.95Q55.6-6.6 52.47-3.13 49.35 0.35 43.55 0.35L43.55 0.35Q38.15 0.35 35.2-2.93 32.25-6.2 32.25-12.25L32.25-12.25Q32.25-18.45 35.4-21.83 38.55-25.2 44.3-25.2L44.3-25.2ZM43.95-22.05Q40-22.05 38.07-19.8 36.15-17.55 36.15-12.7L36.15-12.7Q36.15-7.5 38.05-5.15 39.95-2.8 43.85-2.8L43.85-2.8Q47.85-2.8 49.8-5.1 51.75-7.4 51.75-12.3L51.75-12.3Q51.75-17.35 49.82-19.7 47.9-22.05 43.95-22.05L43.95-22.05ZM73.8-10.05Q76.84-5.4 80.55-0.9L80.55-0.9 80.5-0.4Q78.39 0.25 77.05 0.35L77.05 0.35 76.39-0.05Q72.59-5.8 70.64-9.1L70.64-9.1 65.94-9.05 65.94-7.8 66.05 0 62.34 0 62.49-7.5 62.34-24.9 70.84-24.95Q74.8-24.95 76.92-23.1 79.05-21.25 79.05-17.75L79.05-17.75Q79.05-15.2 77.67-13.2 76.3-11.2 73.8-10.05L73.8-10.05ZM66.05-21.9L66-12.15 70.69-12Q75.14-13.25 75.14-17.45L75.14-17.45Q75.14-19.65 73.84-20.75 72.55-21.85 69.89-21.95L69.89-21.95 66.05-21.9ZM90.89-24.9L90.74-7.8 90.84 0 87.14 0 87.29-7.5 87.14-24.9 90.89-24.9ZM113.29-3.15L113.49-2.8 113.24 0 99.99 0 100.14-7.5 99.99-24.9 103.74-24.9 103.59-7.8 103.69-3.15 113.29-3.15ZM132.14-3.15L132.34-2.8 132.09 0 118.84 0 118.99-7.5 118.84-24.9 122.59-24.9 122.44-7.8 122.54-3.15 132.14-3.15ZM148.44-24.9L157.19 0 153.44 0 152.84-2.7 151.53-6.4 145.59-6.45 140.28-6.4 138.94-2.9 138.23 0 134.53 0 144.13-24.9 148.44-24.9ZM145.88-9.4L150.48-9.45 146.34-21.25 146.03-21.25 141.48-9.45 145.88-9.4ZM180.48-32.3Q183.93-32.3 187.63-30.8L187.63-30.8 186.98-26.95 186.28-26.75Q184.83-27.85 183.2-28.45 181.58-29.05 179.98-29.05L179.98-29.05Q178.13-29.05 176.75-28.3 175.38-27.55 174.66-26.35 173.93-25.15 173.93-23.85L173.93-23.85Q173.93-22.5 174.75-21.48 175.58-20.45 176.83-19.7 178.08-18.95 180.23-17.9L180.23-17.9Q182.93-16.65 184.58-15.58 186.23-14.5 187.41-12.85 188.58-11.2 188.58-8.85L188.58-8.85Q188.58-6.35 187.23-4.25 185.88-2.15 183.43-0.9 180.98 0.35 177.83 0.35L177.83 0.35Q175.73 0.35 173.45-0.23 171.18-0.8 169.23-1.9L169.23-1.9 169.73-6 170.28-6.25Q172.03-4.55 174.16-3.73 176.28-2.9 178.23-2.9L178.23-2.9Q180.13-2.9 181.6-3.65 183.08-4.4 183.85-5.65 184.63-6.9 184.63-8.3L184.63-8.3Q184.63-10.4 183.03-11.68 181.43-12.95 178.18-14.45L178.18-14.45Q175.53-15.75 173.93-16.78 172.33-17.8 171.18-19.43 170.03-21.05 170.03-23.4L170.03-23.4Q170.03-25.85 171.35-27.9 172.68-29.95 175.06-31.13 177.43-32.3 180.48-32.3L180.48-32.3ZM205.03-25.2Q210.48-25.2 213.4-22 216.33-18.8 216.33-12.95L216.33-12.95Q216.33-6.6 213.2-3.13 210.08 0.35 204.28 0.35L204.28 0.35Q198.88 0.35 195.93-2.93 192.98-6.2 192.98-12.25L192.98-12.25Q192.98-18.45 196.13-21.83 199.28-25.2 205.03-25.2L205.03-25.2ZM204.68-22.05Q200.73-22.05 198.8-19.8 196.88-17.55 196.88-12.7L196.88-12.7Q196.88-7.5 198.78-5.15 200.68-2.8 204.58-2.8L204.58-2.8Q208.58-2.8 210.53-5.1 212.48-7.4 212.48-12.3L212.48-12.3Q212.48-17.35 210.55-19.7 208.63-22.05 204.68-22.05L204.68-22.05ZM236.27-3.15L236.47-2.8 236.22 0 222.97 0 223.13-7.5 222.97-24.9 226.72-24.9 226.57-7.8 226.67-3.15 236.27-3.15ZM261.27-24.9L261.12-12.25 261.12-8.65Q261.17-4.4 258.55-2.05 255.92 0.3 251.02 0.3L251.02 0.3Q246.17 0.3 243.62-2.02 241.07-4.35 241.17-8.65L241.17-8.65 241.22-12.45 241.17-24.9 244.92-24.9 244.72-9.25Q244.67-6.1 246.3-4.5 247.92-2.9 251.17-2.9L251.17-2.9Q254.37-2.9 256.02-4.5 257.67-6.1 257.62-9.25L257.62-9.25 257.47-24.9 261.27-24.9ZM284.97-24.9L285.17-24.6 284.92-21.45 280.27-21.8 277.77-21.8 277.62-7.8 277.77 0 274.02 0 274.17-7.5 274.07-21.8 271.57-21.8 266.82-21.45 266.52-21.8 266.82-24.9 284.97-24.9ZM295.02-24.9L294.87-7.8 294.97 0 291.27 0 291.42-7.5 291.27-24.9 295.02-24.9ZM313.17-25.2Q318.62-25.2 321.54-22 324.47-18.8 324.47-12.95L324.47-12.95Q324.47-6.6 321.34-3.13 318.22 0.35 312.42 0.35L312.42 0.35Q307.01 0.35 304.06-2.93 301.12-6.2 301.12-12.25L301.12-12.25Q301.12-18.45 304.26-21.83 307.42-25.2 313.17-25.2L313.17-25.2ZM312.81-22.05Q308.87-22.05 306.94-19.8 305.01-17.55 305.01-12.7L305.01-12.7Q305.01-7.5 306.92-5.15 308.81-2.8 312.72-2.8L312.72-2.8Q316.72-2.8 318.67-5.1 320.62-7.4 320.62-12.3L320.62-12.3Q320.62-17.35 318.69-19.7 316.76-22.05 312.81-22.05L312.81-22.05ZM352.01-25L351.86-7.45 351.91 0 347.91 0 334.81-19 334.56-19 334.51-8.3 334.61 0 331.21 0 331.36-7.35 331.26-24.9 335.21-24.9 348.31-5.9 348.66-5.9 348.56-24.75 352.01-25ZM368.36-25.15Q371.41-25.15 374.46-23.95L374.46-23.95 373.81-20.25 373.21-20.1Q371.81-21.2 370.56-21.73 369.31-22.25 367.96-22.25L367.96-22.25Q365.81-22.25 364.56-21.13 363.31-20 363.31-18.55L363.31-18.55Q363.31-17.1 364.54-16.2 365.76-15.3 368.31-14.2L368.31-14.2Q370.56-13.2 371.89-12.4 373.21-11.6 374.19-10.28 375.16-8.95 375.16-7.05L375.16-7.05Q375.16-5.1 374.11-3.43 373.06-1.75 371.04-0.73 369.01 0.3 366.21 0.3L366.21 0.3Q364.46 0.3 362.54-0.13 360.61-0.55 358.96-1.4L358.96-1.4 359.41-5.35 359.91-5.55Q361.31-4.15 363.19-3.38 365.06-2.6 366.66-2.6L366.66-2.6Q368.76-2.6 370.11-3.73 371.46-4.85 371.46-6.45L371.46-6.45Q371.46-7.95 370.24-8.85 369.01-9.75 366.41-10.95L366.41-10.95Q364.26-11.9 362.89-12.7 361.51-13.5 360.56-14.83 359.61-16.15 359.61-18.05L359.61-18.05Q359.61-20.05 360.69-21.65 361.76-23.25 363.74-24.2 365.71-25.15 368.36-25.15L368.36-25.15Z" opacity="1" transform="matrix(1,0,0,1,0,0)" fill="#ffffff" class="undefined-text-0" data-fill-palette-color="primary" id="text-0"></path></svg></g></svg></g></svg></g></svg></g><g transform="matrix(1,0,0,1,403.6866789481061,0)"><svg viewBox="0 0 55.19011442975057 47.80812241092955" height="47.80812241092955" width="55.19011442975057"><g><svg xmlns="http://www.w3.org/2000/svg" xmlns:xlink="http://www.w3.org/1999/xlink" version="1.1" x="0" y="0" viewBox="5 11 89.92845153808594 77.90000915527344" enable-background="new 0 0 100 100" xml:space="preserve" height="47.80812241092955" width="55.19011442975057" class="icon-icon-0" data-fill-palette-color="accent" id="icon-0"><path d="M94.8 79.3l-1.2-4.2L91.3 73l0-0.1 2.4-0.7L90.4 70l0 0 2.4-0.7-3.2-2.2 0 0 2.4-0.7-3.2-2.2 0 0 2.4-0.7-3.2-2.2 0 0 2.4-0.7L87 58.4l0 0 2.4-0.7-3.2-2.2 0 0 2.4-0.7-3.2-2.2 0 0 2.4-0.7-3.2-2.2 0 0 2.4-0.7-3.2-2.2-0.8-2.7c0.6-0.1 1.2-0.5 1.8-0.9 0.7-0.4 1.3-1 1.7-1.7 0.6-0.9 1-2.2 1-3.8 0-2.4 0.1-3.8 0.1-3.8l2.2-3.2 0 0 1.4-2.1-1.9-3.5v-4.6L82.1 11h-6.4l-13.6 9.7-0.7 3L36.6 36.3h-7.4c-9.1 0-16.4 7.4-16.4 16.4v0.3c0 2.8 0.7 5.2 1.9 7.3l0.8 2.3L5 72.2l6.4 14.7 2.6-1.1 0.1-4.1 7.3-1.8 3 8.6H41v-3l-3.9-1.8L40.3 65l3.6 1.6-0.7-2.4 0 0 3.6 1.6-0.7-2.4 0 0 3.6 1.6-0.7-2.4 0 0 3.6 1.6-0.7-2.4 0 0 3.6 1.6L55.2 61l0.1 0 3.6 1.6-0.7-2.4 0.1 0 3.6 1.6-0.6-2.4 0.1 0 1.8 0.8-0.4 1.2-0.1 0.2 2.2-0.7 0 0 0 0 0.1 0 0 0-1.5 3.6 2.3-0.7 0 0-1.5 3.6 2.3-0.7 0 0-1.5 3.6 2.3-0.7 0 0.1-1.5 3.5 2.3-0.7 0 0.1L67.1 76l2.3-0.7 0 0.1L68 78.9l2.3-0.7 0 0.1-1.5 3.5 2.3-0.7 0 4.5c0 1.8 1.5 3.3 3.3 3.3h6.1c1.8 0 3.3-1.3 3.3-3.1v-1.2c0.8 0.5 1.7 0.6 2.6 0.3l6.1-1.7C94.3 82.7 95.3 81.1 94.8 79.3z" fill="#c8c8c8" data-fill-palette-color="accent"></path></svg></g></svg></g></svg></g><defs></defs></svg><rect width="395.52" height="41.2072888602157" fill="none" stroke="none" visibility="hidden"></rect></g></svg></g></svg>