<?xml version="1.0" standalone="no"?>
<!DOCTYPE svg PUBLIC "-//W3C//DTD SVG 20010904//EN"
 "http://www.w3.org/TR/2001/REC-SVG-20010904/DTD/svg10.dtd">
<svg version="1.0" xmlns="http://www.w3.org/2000/svg"
 width="300.000000pt" height="160.000000pt" viewBox="0 0 300.000000 160.000000"
 preserveAspectRatio="xMidYMid meet">
<metadata>
Created by potrace 1.10, written by Peter Selinger 2001-2011
</metadata>
<g transform="translate(0.000000,160.000000) scale(0.100000,-0.100000)"
fill="#000000" stroke="none">
<path d="M1782 1518 c-128 -44 -231 -83 -229 -85 2 -2 111 33 241 77 130 45
241 80 246 78 8 -2 -753 -264 -830 -286 -13 -3 -13 -3 0 8 8 6 10 10 3 8 -9
-2 -13 -56 -15 -200 -2 -121 0 -194 6 -191 5 4 7 -1 3 -9 -3 -9 2 -23 11 -31
29 -25 106 -12 282 47 90 31 168 56 172 56 4 0 9 -30 11 -67 l3 -68 2 68 c1
46 -2 69 -10 72 -7 3 -94 -22 -193 -55 -99 -33 -184 -60 -190 -59 -5 0 78 31
185 68 130 45 199 64 208 58 17 -14 16 -151 -2 -166 -25 -21 -588 -203 -598
-193 -5 5 -8 135 -6 306 2 194 0 295 -7 293 -5 -2 -34 -12 -62 -21 l-53 -18
-1 -364 c-1 -200 -2 -370 -3 -376 -1 -7 10 -14 24 -16 15 -2 20 0 13 5 -6 5
159 66 403 148 l413 140 3 175 3 175 -27 27 c-15 14 -25 28 -22 30 15 16 -116
-17 -252 -62 -89 -30 -168 -51 -177 -47 -14 5 -17 21 -17 82 l0 76 36 15 c20
8 43 13 51 10 8 -3 12 -2 9 3 -7 11 41 24 56 15 7 -5 8 -2 3 6 -6 10 -3 12 13
8 14 -4 20 -2 15 5 -4 6 2 8 15 5 14 -4 20 -2 15 5 -4 6 0 8 10 4 10 -4 17 -2
17 4 0 6 7 9 15 5 8 -3 15 -1 15 5 0 6 7 8 16 5 10 -4 13 -2 8 6 -5 7 0 9 14
6 14 -4 20 -2 15 5 -4 6 2 8 15 5 14 -4 20 -2 15 5 -4 6 2 8 15 5 14 -4 20 -2
15 5 -4 6 2 8 15 5 14 -4 20 -2 15 5 -4 6 2 8 15 5 14 -4 20 -2 15 5 -4 6 2 8
15 5 14 -4 20 -2 16 4 -4 6 2 8 16 3 17 -5 21 -4 15 6 -6 9 -3 11 8 6 10 -4
17 -2 17 4 0 6 7 9 15 5 8 -3 15 -1 15 5 0 6 7 9 15 5 8 -3 15 -1 15 4 0 6 5
10 10 10 7 0 10 -103 8 -310 -2 -171 -1 -310 2 -311 33 -5 48 -4 43 4 -4 6 5
7 23 3 23 -5 26 -4 14 5 -12 9 -11 10 8 6 12 -3 20 -2 17 3 -3 4 2 11 11 14
10 4 13 2 8 -7 -4 -6 -4 -10 -1 -7 3 4 8 181 9 395 l3 390 -25 2 c-14 1 -130
-34 -258 -79z m261 -161 c-3 -224 -11 -439 -19 -484 -6 -34 -32 -52 -46 -31
-4 7 -9 42 -10 78 -1 36 -3 83 -4 105 0 22 -2 84 -3 138 0 63 -5 96 -11 92 -6
-4 -10 25 -10 80 l0 87 -52 -7 c-29 -4 -57 -10 -63 -13 -5 -4 -15 -7 -21 -8
-19 -3 -304 -94 -397 -126 -104 -37 -118 -53 -122 -136 -3 -62 6 -88 38 -113
25 -20 61 -13 207 40 191 70 206 73 234 42 14 -16 17 -38 16 -133 -1 -134 -5
-187 -17 -199 -14 -14 -716 -249 -744 -249 -9 0 -19 10 -22 22 -7 34 0 625 8
637 3 6 13 11 21 11 11 0 14 -20 16 -97 1 -54 2 -123 3 -153 1 -30 3 -108 4
-172 3 -130 14 -152 69 -150 16 0 147 40 293 88 308 103 319 110 319 201 0 57
-22 118 -45 127 -17 6 -55 -4 -248 -66 -121 -39 -163 -49 -175 -41 -15 9 -17
33 -17 183 l0 172 48 18 c26 10 47 16 47 13 0 -3 6 -1 13 4 6 6 75 32 152 59
77 26 142 52 143 56 2 5 8 6 13 2 5 -3 9 0 9 6 0 7 6 10 14 7 8 -3 16 -2 18 2
6 14 323 118 333 109 6 -6 9 -83 8 -201z"/>
<path d="M1402 1387 c-45 -16 -81 -31 -79 -33 4 -4 177 53 185 61 11 11 -27 1
-106 -28z"/>
<path d="M1092 853 c-1 -105 1 -194 6 -196 4 -3 6 54 4 126 -4 240 -8 265 -10
70z"/>
<path d="M1820 886 l-5 -149 -208 -70 c-114 -38 -206 -72 -204 -74 7 -6 400
128 415 142 9 8 12 48 10 156 l-3 144 -5 -149z"/>
<path d="M1190 525 c-102 -35 -180 -64 -175 -64 13 -1 366 116 373 124 11 10
-17 2 -198 -60z"/>
<path d="M90 281 c-53 -29 -72 -55 -77 -108 -13 -149 175 -212 258 -87 42 64
13 156 -61 195 -43 24 -75 23 -120 0z m126 -54 c20 -18 27 -33 28 -65 2 -91
-104 -133 -165 -64 -39 43 -38 81 2 121 39 39 94 43 135 8z"/>
<path d="M933 281 c-46 -21 -69 -51 -79 -98 -7 -38 10 -94 36 -118 11 -10 18
-21 15 -25 -2 -4 1 -7 8 -8 7 -1 33 -4 59 -8 53 -7 103 8 113 34 9 24 -15 32
-51 15 -94 -45 -181 77 -108 151 33 32 89 35 126 7 l24 -19 -4 34 c-4 29 -9
35 -41 44 -47 13 -49 13 -98 -9z"/>
<path d="M1440 293 c-31 -12 -50 -37 -50 -68 0 -36 16 -53 78 -84 26 -13 42
-28 42 -39 0 -45 -63 -58 -82 -17 -15 32 -48 34 -48 2 0 -64 103 -91 154 -41
48 49 32 93 -49 138 -26 14 -40 29 -40 41 0 27 41 32 66 9 19 -17 20 -17 37 1
9 10 11 15 5 11 -9 -5 -11 -2 -7 9 10 25 -67 52 -106 38z"/>
<path d="M1840 283 c-135 -70 -87 -263 65 -263 173 0 181 255 8 276 -25 3 -50
-1 -73 -13z m125 -57 c48 -48 40 -122 -16 -151 -42 -22 -75 -18 -111 14 -25
22 -32 37 -32 65 0 81 103 128 159 72z"/>
<path d="M2345 178 c-73 -156 -70 -148 -50 -148 9 0 13 -5 10 -10 -3 -6 -2
-10 3 -10 5 0 17 18 27 40 18 40 18 40 75 40 56 0 57 -1 66 -32 7 -25 15 -32
37 -32 27 -2 37 17 16 29 -6 4 -8 14 -4 23 3 9 3 13 -2 9 -9 -10 -85 152 -77
164 3 5 1 9 -5 9 -5 0 -13 9 -16 20 -3 11 -10 20 -14 20 -5 0 -34 -55 -66
-122z m75 14 c0 -10 7 -28 16 -40 15 -22 14 -22 -25 -22 l-40 0 17 40 c18 42
32 52 32 22z"/>
<path d="M2620 282 c-73 -36 -99 -116 -60 -191 25 -51 73 -73 146 -69 54 3 76
15 80 44 1 7 5 32 9 54 l7 40 -40 0 c-22 0 -47 3 -56 6 -12 5 -16 0 -16 -20 0
-22 4 -26 30 -26 38 0 40 -23 4 -46 -20 -14 -33 -15 -62 -8 -22 6 -36 15 -34
23 1 7 -2 10 -7 6 -14 -8 -31 28 -31 67 1 35 23 74 37 65 5 -3 15 -1 23 5 12
8 12 9 -3 4 -11 -3 -16 -2 -12 4 12 19 84 11 106 -11 24 -24 49 -19 49 11 0
15 -12 27 -42 40 -53 24 -83 25 -128 2z"/>
<path d="M330 160 l0 -130 63 0 c53 0 67 4 85 23 29 30 28 59 -3 95 -15 19
-21 33 -15 37 17 11 11 64 -10 85 -15 15 -33 20 -70 20 l-50 0 0 -130z m95 55
c0 -25 -4 -30 -27 -33 -26 -3 -28 -1 -28 33 0 34 2 36 28 33 23 -3 27 -8 27
-33z m20 -110 c0 -27 -3 -30 -37 -33 -38 -3 -38 -3 -38 36 l0 39 38 -6 c33 -6
37 -9 37 -36z"/>
<path d="M580 171 l0 -120 -27 2 c-22 2 -28 -2 -28 -18 0 -17 7 -20 40 -20 56
0 65 23 65 163 l0 112 -25 0 -25 0 0 -119z"/>
<path d="M680 155 l0 -136 78 3 c69 3 77 5 77 23 0 18 -6 20 -57 17 l-58 -4 0
46 0 46 55 0 c48 0 55 2 55 20 0 18 -7 20 -55 20 -54 0 -55 0 -55 30 0 30 0
30 60 30 53 0 60 2 60 20 0 18 -7 20 -80 20 l-80 0 0 -135z"/>
<path d="M1090 270 c0 -16 7 -20 35 -20 l35 0 0 -112 0 -113 25 0 25 0 0 113
0 112 35 0 c28 0 35 4 35 20 0 19 -7 20 -95 20 -88 0 -95 -1 -95 -20z"/>
<path d="M1570 267 c0 -20 4 -23 36 -19 l36 4 -4 -110 c-3 -98 -1 -112 14
-115 9 -3 19 -2 22 1 3 3 6 55 6 115 l0 110 35 -6 c32 -5 35 -4 35 19 0 24 -1
24 -90 24 -87 0 -90 -1 -90 -23z"/>
<path d="M2080 162 c0 -71 3 -131 6 -134 3 -3 14 -3 26 0 18 4 20 11 16 54 -3
27 -2 51 2 53 4 3 19 -13 34 -35 14 -22 23 -40 19 -40 -4 0 2 -7 13 -15 19
-14 64 -21 64 -9 0 4 -17 27 -37 52 -35 43 -36 45 -18 58 10 8 22 14 25 14 3
0 7 20 9 44 3 60 -29 86 -105 86 l-54 0 0 -128z m94 82 c9 -4 16 -18 16 -34 0
-28 -15 -40 -49 -40 -15 0 -18 7 -16 38 1 20 3 38 4 40 2 4 29 2 45 -4z"/>
<path d="M2830 155 l0 -134 74 1 c62 1 75 4 79 19 7 26 0 29 -60 29 l-53 0 0
41 0 40 53 -2 c49 -3 52 -2 55 21 3 24 1 25 -53 22 l-55 -4 0 32 0 32 54 -4
c51 -4 55 -3 59 19 4 22 3 23 -74 23 l-79 0 0 -135z"/>
</g>
</svg>
