<svg width="25" height="24" viewBox="0 0 25 24" fill="none" xmlns="http://www.w3.org/2000/svg">
<g clip-path="url(#clip0_802_835)">
<path d="M22.4734 0H2.02187C1.04219 0 0.25 0.773438 0.25 1.72969V22.2656C0.25 23.2219 1.04219 24 2.02187 24H22.4734C23.4531 24 24.25 23.2219 24.25 22.2703V1.72969C24.25 0.773438 23.4531 0 22.4734 0ZM7.37031 20.4516H3.80781V8.99531H7.37031V20.4516ZM5.58906 7.43438C4.44531 7.43438 3.52188 6.51094 3.52188 5.37187C3.52188 4.23281 4.44531 3.30937 5.58906 3.30937C6.72813 3.30937 7.65156 4.23281 7.65156 5.37187C7.65156 6.50625 6.72813 7.43438 5.58906 7.43438ZM20.7016 20.4516H17.1437V14.8828C17.1437 13.5562 17.1203 11.8453 15.2922 11.8453C13.4406 11.8453 13.1594 13.2937 13.1594 14.7891V20.4516H9.60625V8.99531H13.0187V10.5609H13.0656C13.5391 9.66094 14.7016 8.70938 16.4313 8.70938C20.0359 8.70938 20.7016 11.0813 20.7016 14.1656V20.4516Z" fill="white"/>
</g>
<defs>
<clipPath id="clip0_802_835">
<rect width="24" height="24" fill="white" transform="translate(0.25)"/>
</clipPath>
</defs>
</svg>
